PathFileType	4	(X/Y/Z)	C:/Users/opensim2020/Desktop/walking_exp_matlab/subject06_walking20_straight_02.trc																																																																																																																															
DataRate	CameraRate	NumFrames	NumMarkers	Units	OrigDataRate	OrigDataStartFrame	OrigNumFrames																																																																																																																											
100	100	5	43	mm	100	1255	105																																																																																																																											
Frame#	Time	LFHD			RFHD			LBHD			RBHD			C7			T10			CLAV			STRN			RBAK			LSHO			LUPA			LELB			LFRM			LWRA			LWRB			LFIN			RSHO			RUPA			RELB			RFRM			RWRA			RWRB			RFIN			LASI			RASI			LPSI			RPSI			LTHI			LKNE			LTIB			LANK			LHEE			LTOE			RTHI			RKNE			RTIB			RANK			RHEE			RTOE			*39			*40			*41			*42		
		X1	Y1	Z1	X2	Y2	Z2	X3	Y3	Z3	X4	Y4	Z4	X5	Y5	Z5	X6	Y6	Z6	X7	Y7	Z7	X8	Y8	Z8	X9	Y9	Z9	X10	Y10	Z10	X11	Y11	Z11	X12	Y12	Z12	X13	Y13	Z13	X14	Y14	Z14	X15	Y15	Z15	X16	Y16	Z16	X17	Y17	Z17	X18	Y18	Z18	X19	Y19	Z19	X20	Y20	Z20	X21	Y21	Z21	X22	Y22	Z22	X23	Y23	Z23	X24	Y24	Z24	X25	Y25	Z25	X26	Y26	Z26	X27	Y27	Z27	X28	Y28	Z28	X29	Y29	Z29	X30	Y30	Z30	X31	Y31	Z31	X32	Y32	Z32	X33	Y33	Z33	X34	Y34	Z34	X35	Y35	Z35	X36	Y36	Z36	X37	Y37	Z37	X38	Y38	Z38	X39	Y39	Z39	X40	Y40	Z40	X41	Y41	Z41	X42	Y42	Z42	X43	Y43	Z43
																																																																																																																																		
14	0.13	-943.04126	1638.06482	-1497.77014	-938.98187	1624.65857	-1366.42285	-1076.23718	1583.38965	-1494.86218	-1070.72168	1575.41589	-1366.49365	-1075.54431	1425.48242	-1439.55737	-1119.68213	1098.47266	-1433.29358	-965.9978	1345.79907	-1441.27368	-932.5799	1168.14063	-1446.35046	-1149.75037	1257.36365	-1354.67029	-1026.95215	1376.36255	-1602.74731	-1080.51147	1181.39331	-1668.7522	-1120.44128	1075.22266	-1675.37097	-1145.69141	928.14374	-1699.20654	-1125.06934	797.56433	-1657.77686	-1182.75146	815.914	-1697.41968	-1177.5199	723.38763	-1692.21692	-1007.87695	1380.41931	-1279.44531	-1042.49512	1187.26953	-1182.46765	-1024.88318	1070.17822	-1165.36218	-957.01105	975.36926	-1158.93311	-838.36853	897.27472	-1211.9718	-878.13428	864.97253	-1168.56873	-804.32086	826.46442	-1176.03564	-941.2804	937.23608	-1535.23779	-958.4057	934.64478	-1317.06836	-1102.17407	962.28827	-1521.24231	-1107.4364	966.44012	-1352.50452	-933.71338	636.3446	-1621.83667	-862.48383	492.07602	-1594.47766	-806.16321	245.16208	-1601.88428	-740.06378	82.27248	-1570.51404	-771.03589	51.66748	-1525.41882	-594.42102	104.78133	-1564.00757	-1068.32739	605.78174	-1291.3988	-1096.70227	482.72623	-1321.11096	-1250.34082	258.79456	-1344.08606	-1349.92773	104.38532	-1396.94507	-1397.54431	95.39782	-1442.02026	-1216.92993	38.03623	-1392.96301	-1041.49097	1674.89587	-1434.70935	NaN	NaN	NaN	NaN	NaN	NaN	NaN	NaN	NaN
15	0.14	-928.86151	1637.42957	-1499.51086	-925.02203	1623.93396	-1368.11646	-1062.02026	1582.68384	-1496.84277	-1056.73193	1574.69507	-1368.43384	-1061.40503	1424.46997	-1441.49585	-1104.23279	1097.23267	-1434.61121	-951.479	1345.14465	-1443.0564	-917.14783	1167.54773	-1447.61414	-1135.12756	1256.31653	-1356.60547	-1012.85162	1375.55994	-1604.58093	-1066.97266	1180.95679	-1670.36584	-1107.80347	1075.09167	-1676.75232	-1134.11829	927.99933	-1700.00696	-1114.27844	797.53766	-1658.63452	-1172.22949	816.11206	-1698.10156	-1167.41223	723.60803	-1692.67493	-993.65295	1379.74451	-1281.2428	-1028.40674	1186.71509	-1184.51611	-1010.89185	1069.59302	-1167.01172	-943.3465	974.5647	-1160.34888	-824.81274	896.2666	-1212.98145	-864.6239	863.92114	-1169.83838	-790.91351	825.5639	-1176.849	-924.75201	936.83746	-1535.93774	-942.96326	933.69562	-1318.02673	-1085.64453	961.5777	-1522.99243	-1091.8479	965.37677	-1354.38684	-917.12024	635.9892	-1622.63232	-847.7395	491.08765	-1594.92334	-790.38434	243.90453	-1601.68298	-724.16345	81.15056	-1569.7113	-755.13483	50.4452	-1524.64758	-578.73407	104.73133	-1563.07007	-1054.0354	605.01501	-1292.4585	-1082.59265	482.01157	-1321.98083	-1242.22168	261.74997	-1345.06299	-1346.11633	110.29727	-1397.86792	-1393.71472	103.30591	-1443.11035	-1216.21826	38.53418	-1393.06995	-1027.39514	1674.16956	-1436.55188	NaN	NaN	NaN	NaN	NaN	NaN	NaN	NaN	NaN
16	0.15	-914.62024	1637.026	-1501.22302	-911.01306	1623.51172	-1369.86365	-1047.82422	1582.2876	-1498.84094	-1042.6366	1574.20239	-1370.39636	-1047.15356	1423.65283	-1443.39038	-1088.62915	1096.25867	-1436.13049	-936.75916	1344.81152	-1444.90247	-901.65961	1167.44299	-1449.07727	-1120.34473	1255.44189	-1358.58252	-998.70837	1375.1322	-1606.42749	-1053.39307	1180.92944	-1672.13428	-1094.89722	1075.46851	-1678.39612	-1122.09595	928.45178	-1701.25049	-1102.60327	797.87585	-1659.46399	-1160.87097	816.5722	-1698.77698	-1156.31946	724.03943	-1693.35876	-979.45538	1379.41345	-1283.17175	-1014.34863	1186.54675	-1186.34521	-997.03326	1069.31897	-1168.88037	-929.97723	973.82428	-1161.85913	-811.81244	894.87653	-1213.96631	-851.88232	862.71704	-1171.05286	-778.34296	824.19415	-1177.59583	-907.78522	936.85565	-1536.70496	-928.69525	933.35291	-1319.34937	-1068.3042	961.13104	-1524.71118	-1075.8728	964.6156	-1356.38867	-899.9812	635.88196	-1622.87219	-832.36151	490.54236	-1594.90942	-776.09442	242.32373	-1601.50281	-711.24316	79.19785	-1569.0293	-742.43018	48.222	-1524.01575	-566.24072	102.96188	-1561.90918	-1038.70898	604.34131	-1293.57751	-1067.12061	481.10098	-1322.76318	-1232.88171	265.13306	-1346.04309	-1341.50488	117.09957	-1398.64771	-1388.77698	112.23657	-1444.20618	-1215.65833	38.81188	-1393.00757	-1013.27344	1673.76929	-1438.44153	NaN	NaN	NaN	NaN	NaN	NaN	NaN	NaN	NaN
17	0.16	-900.48987	1636.896	-1502.94556	-897.04211	1623.35242	-1371.61694	-1033.64368	1582.14539	-1500.83643	-1028.89209	1574.04785	-1372.53748	-1032.77979	1423.10352	-1445.34729	-1072.89893	1095.55737	-1437.74304	-922.02087	1344.82886	-1446.80786	-885.99982	1167.65308	-1450.54736	-1105.63257	1254.91724	-1360.82068	-984.34027	1375.0022	-1608.25244	-1039.49805	1181.25159	-1673.92688	-1081.36621	1075.8844	-1679.75452	-1109.32947	929.0072	-1702.43848	-1090.2489	798.3573	-1660.9541	-1148.75476	817.31775	-1699.60791	-1144.29004	724.78235	-1694.35571	-965.43616	1379.37036	-1285.17249	-1000.14764	1186.66528	-1188.17542	-983.30487	1069.31555	-1170.92493	-916.98083	973.19562	-1163.42126	-799.32025	893.23517	-1214.85913	-839.88367	861.45557	-1172.23218	-766.52557	822.3053	-1178.35645	-890.55432	937.10114	-1537.47827	-911.55957	933.26544	-1320.22437	-1051.02954	961.00458	-1526.5144	-1059.55078	964.03717	-1358.44897	-882.59436	635.97882	-1622.52954	-816.4071	490.29593	-1594.53503	-763.42322	240.35519	-1601.24878	-701.27551	76.12694	-1568.22241	-732.87592	45.45467	-1523.67798	-556.7641	99.6181	-1560.51941	-1022.2099	603.47821	-1294.75781	-1049.96289	480.09576	-1323.42371	-1222.35022	269.18597	-1347.23181	-1335.63855	124.82584	-1399.48083	-1382.40271	122.44749	-1445.41479	-1214.70276	39.14912	-1393.18848	-999.24957	1673.59558	-1440.39697	NaN	NaN	NaN	NaN	NaN	NaN	NaN	NaN	NaN
18	0.17	-886.28436	1636.90637	-1504.67139	-883.17889	1623.4397	-1373.39697	-1019.47882	1582.1261	-1502.92383	-1014.98273	1574.06201	-1374.63989	-1018.40784	1422.72363	-1447.44531	-1056.97913	1095.01123	-1439.59839	-907.21472	1345.03772	-1448.6958	-870.14618	1168.09216	-1452.03955	-1090.70679	1254.45764	-1363.03015	-969.75989	1375.13538	-1610.0824	-1025.30115	1181.83167	-1675.70935	-1067.40564	1076.53552	-1681.26526	-1095.72449	929.50446	-1703.39368	-1076.83508	799.06378	-1662.41687	-1135.08508	817.30151	-1699.48413	-1131.28223	725.6521	-1695.47485	-951.47272	1379.47913	-1287.28723	-986.26337	1187.05334	-1190.01672	-969.71881	1069.49512	-1173.12048	-904.45001	972.5907	-1165.00281	-787.43079	891.17151	-1215.74402	-828.61511	859.93439	-1173.25256	-755.96387	819.96332	-1178.79016	-872.93848	937.53961	-1538.33521	-895.29083	933.40747	-1321.44238	-1033.45337	961.00031	-1528.28638	-1042.87219	963.69403	-1360.63452	-864.8717	636.14673	-1621.7041	-800.31549	489.86426	-1593.96289	-751.76154	237.74915	-1600.63196	-693.67389	72.63026	-1567.49158	-726.5495	42.91527	-1523.59937	-549.48901	94.27528	-1559.18347	-1004.69702	602.57916	-1295.4386	-1030.93311	478.76004	-1323.8894	-1209.92126	273.41254	-1348.03601	-1328.11133	133.46613	-1400.47559	-1373.80579	133.50613	-1446.94275	-1213.42932	39.50739	-1393.38647	-985.2403	1673.59827	-1442.35229	NaN	NaN	NaN	NaN	NaN	NaN	NaN	NaN	NaN
